<svg width="50" height="50" viewBox="0 0 50 50" fill="none" xmlns="http://www.w3.org/2000/svg">
<path d="M44.5312 25C44.5312 25.6216 44.2843 26.2177 43.8448 26.6573C43.4052 27.0968 42.8091 27.3438 42.1875 27.3438H7.8125C7.1909 27.3438 6.59476 27.0968 6.15522 26.6573C5.71568 26.2177 5.46875 25.6216 5.46875 25C5.46875 24.3784 5.71568 23.7823 6.15522 23.3427C6.59476 22.9032 7.1909 22.6563 7.8125 22.6562H42.1875C42.8091 22.6563 43.4052 22.9032 43.8448 23.3427C44.2843 23.7823 44.5312 24.3784 44.5312 25ZM7.8125 14.8438H42.1875C42.8091 14.8437 43.4052 14.5968 43.8448 14.1573C44.2843 13.7177 44.5312 13.1216 44.5312 12.5C44.5312 11.8784 44.2843 11.2823 43.8448 10.8427C43.4052 10.4032 42.8091 10.1562 42.1875 10.1562H7.8125C7.1909 10.1562 6.59476 10.4032 6.15522 10.8427C5.71568 11.2823 5.46875 11.8784 5.46875 12.5C5.46875 13.1216 5.71568 13.7177 6.15522 14.1573C6.59476 14.5968 7.1909 14.8438 7.8125 14.8438ZM42.1875 35.1562H7.8125C7.1909 35.1562 6.59476 35.4032 6.15522 35.8427C5.71568 36.2823 5.46875 36.8784 5.46875 37.5C5.46875 38.1216 5.71568 38.7177 6.15522 39.1573C6.59476 39.5968 7.1909 39.8438 7.8125 39.8438H42.1875C42.8091 39.8438 43.4052 39.5968 43.8448 39.1573C44.2843 38.7177 44.5312 38.1216 44.5312 37.5C44.5312 36.8784 44.2843 36.2823 43.8448 35.8427C43.4052 35.4032 42.8091 35.1562 42.1875 35.1562Z" fill="#90A4AE"/>
</svg>
