<svg width="50" height="50" viewBox="0 0 50 50" fill="none" xmlns="http://www.w3.org/2000/svg">
<path d="M41.0742 11.0039L25.4492 6.31641C25.2159 6.24638 24.9695 6.23186 24.7296 6.27401C24.4897 6.31616 24.263 6.4138 24.0676 6.55915C23.8721 6.7045 23.7134 6.89353 23.604 7.11114C23.4946 7.32876 23.4376 7.56893 23.4375 7.8125V28.957C21.8373 27.5258 19.7944 26.6871 17.6501 26.5812C15.5059 26.4752 13.3902 27.1084 11.6567 28.375C9.92327 29.6415 8.67701 31.4647 8.12625 33.5397C7.57549 35.6147 7.75361 37.8159 8.63082 39.7754C9.50804 41.7349 11.0312 43.3339 12.9458 44.3053C14.8603 45.2766 17.0503 45.5614 19.1496 45.1121C21.2489 44.6628 23.1304 43.5066 24.4797 41.8367C25.8289 40.1668 26.5642 38.0844 26.5625 35.9375V19.2871L40.1758 23.3711C40.4091 23.4411 40.6555 23.4556 40.8954 23.4135C41.1353 23.3713 41.362 23.2737 41.5574 23.1284C41.7529 22.983 41.9116 22.794 42.021 22.5764C42.1304 22.3587 42.1874 22.1186 42.1875 21.875V12.5C42.1874 12.1641 42.0791 11.8371 41.8785 11.5677C41.678 11.2982 41.396 11.1005 41.0742 11.0039ZM17.1875 42.1875C15.9514 42.1875 14.743 41.8209 13.7152 41.1342C12.6874 40.4474 11.8863 39.4713 11.4133 38.3293C10.9402 37.1872 10.8164 35.9306 11.0576 34.7182C11.2988 33.5058 11.894 32.3922 12.7681 31.5181C13.6422 30.644 14.7558 30.0488 15.9682 29.8076C17.1806 29.5664 18.4372 29.6902 19.5793 30.1633C20.7213 30.6363 21.6974 31.4374 22.3842 32.4652C23.0709 33.493 23.4375 34.7014 23.4375 35.9375C23.4375 37.5951 22.779 39.1848 21.6069 40.3569C20.4348 41.529 18.8451 42.1875 17.1875 42.1875ZM39.0625 19.7754L26.5625 16.0254V9.91211L39.0625 13.6719V19.7754Z" fill="#90A4AE"/>
</svg>
