<svg width="30" height="30" viewBox="0 0 30 30" fill="none" xmlns="http://www.w3.org/2000/svg">
<g clip-path="url(#clip0_2017_15)">
<path d="M29.2418 4.575L15.7788 28.6495C15.5006 29.1466 14.7865 29.1495 14.5045 28.6552L0.774393 4.57781C0.466659 4.03828 0.927206 3.38555 1.53869 3.49453L15.0162 5.9032C15.1022 5.91891 15.1903 5.91891 15.2763 5.9032L28.4717 3.49828C29.0806 3.38742 29.5439 4.03477 29.2418 4.575Z" fill="url(#paint0_linear_2017_15)"/>
<path d="M21.4361 0.335157L11.4738 2.28703C11.3942 2.30257 11.3221 2.34408 11.2688 2.40504C11.2154 2.466 11.1838 2.54296 11.1789 2.62383L10.5656 12.9757C10.5623 13.0325 10.5722 13.0892 10.5947 13.1415C10.6171 13.1937 10.6514 13.24 10.6948 13.2767C10.7383 13.3134 10.7896 13.3395 10.8449 13.3529C10.9002 13.3663 10.9578 13.3667 11.0132 13.354L13.7873 12.713C13.847 12.6992 13.9093 12.7007 13.9683 12.7173C14.0273 12.7339 14.0812 12.765 14.1251 12.8079C14.1689 12.8507 14.2013 12.9038 14.2193 12.9624C14.2372 13.0211 14.2402 13.0832 14.2279 13.1433L13.4036 17.179C13.391 17.2411 13.3947 17.3054 13.4145 17.3657C13.4342 17.4259 13.4692 17.48 13.5161 17.5226C13.563 17.5653 13.6201 17.595 13.682 17.6089C13.7438 17.6228 13.8082 17.6205 13.8688 17.602L15.5817 17.081C15.8472 17.0004 16.1027 17.2338 16.0469 17.5057L14.7367 23.8448C14.6552 24.2414 15.1825 24.4575 15.4024 24.1177L15.5488 23.8908L23.6676 7.68844C23.804 7.41656 23.5689 7.10719 23.2715 7.16484L20.4156 7.71609C20.3542 7.72803 20.2907 7.72397 20.2313 7.7043C20.1718 7.68463 20.1185 7.65001 20.0763 7.60377C20.0341 7.55753 20.0045 7.50121 19.9903 7.44023C19.9761 7.37925 19.9779 7.31565 19.9954 7.25555L21.8587 0.795704C21.8762 0.735387 21.8779 0.671573 21.8636 0.610416C21.8493 0.549258 21.8194 0.492819 21.777 0.446539C21.7345 0.400259 21.6808 0.365698 21.6211 0.34619C21.5614 0.326681 21.4977 0.322881 21.4361 0.335157Z" fill="url(#paint1_linear_2017_15)"/>
</g>
<defs>
<linearGradient id="paint0_linear_2017_15" x1="0.438815" y1="2.63428" x2="17.1952" y2="25.3907" gradientUnits="userSpaceOnUse">
<stop stop-color="#41D1FF"/>
<stop offset="1" stop-color="#BD34FE"/>
</linearGradient>
<linearGradient id="paint1_linear_2017_15" x1="14.2431" y1="0.86484" x2="17.2743" y2="21.6582" gradientUnits="userSpaceOnUse">
<stop stop-color="#FFEA83"/>
<stop offset="0.083" stop-color="#FFDD35"/>
<stop offset="1" stop-color="#FFA800"/>
</linearGradient>
<clipPath id="clip0_2017_15">
<rect width="30" height="30" fill="white"/>
</clipPath>
</defs>
</svg>
